<svg xmlns="http://www.w3.org/2000/svg" width="24" height="24" fill="white" viewBox="0 0 24 24">
  <path d="M12 .297c-6.63 0-12 5.373-12 12 0 5.302 3.438 9.8 8.207 11.387.6.113.793-.258.793-.577 
           0-.285-.01-1.04-.015-2.04-3.338.724-4.042-1.61-4.042-1.61-.546-1.387-1.333-1.756-1.333-1.756-1.09-.745.084-.729.084-.729 
           1.205.084 1.838 1.236 1.838 1.236 1.07 1.834 2.809 1.304 3.495.997.108-.776.418-1.305.76-1.605-2.665-.305-5.467-1.334-5.467-5.93 
           0-1.31.47-2.38 1.236-3.22-.124-.303-.535-1.523.117-3.176 0 0 1.008-.322 3.3 1.23a11.49 11.49 0 013.003-.403c1.02.005 2.045.137 3.003.403 
           2.29-1.552 3.296-1.23 3.296-1.23.653 1.653.242 2.873.118 3.176.77.84 1.235 1.91 1.235 3.22 
           0 4.61-2.807 5.625-5.479 5.921.43.37.823 1.102.823 2.222 
           0 1.606-.015 2.898-.015 3.293 0 .32.192.694.801.576C20.565 22.092 24 17.592 24 12.297 
           c0-6.627-5.373-12-12-12"/>
</svg>
